<?xml version="1.0" encoding="UTF-8"?>
<svg data-bbox="29.22 126.547 315.394 120.306" height="500" viewBox="0 0 375 375" width="500" xmlns="http://www.w3.org/2000/svg" data-type="color">
    <g>
        <defs>
            <clipPath id="08f2d295-304f-4495-8bbd-8557910e82d7">
                <path d="M321 0v129H0V0z"/>
            </clipPath>
            <clipPath id="364e4a25-9171-4116-b80d-12a9e40a8c94">
                <path d="M77 0v17H0V0z"/>
            </clipPath>
        </defs>
        <g clip-path="url(#08f2d295-304f-4495-8bbd-8557910e82d7)" transform="translate(26 123)">
            <path d="M3.611 26.375q0-11.027 5.25-16.922 5.249-5.906 15.766-5.906 10.5 0 15.75 5.906 5.25 5.895 5.25 16.922v3.5H32.142v-4.406c0-3.29-.633-5.602-1.89-6.938q-1.875-2.015-5.25-2.015-3.364 0-5.25 2.015-1.875 2.004-1.875 6.938-.001 4.674 2.078 8.234 2.075 3.563 5.187 6.75a138 138 0 0 0 6.672 6.36 63 63 0 0 1 6.688 6.937c2.07 2.5 3.8 5.352 5.187 8.547q2.076 4.8 2.078 11.281 0 11.032-5.39 16.938c-3.586 3.93-8.883 5.89-15.891 5.89-7 0-12.297-1.96-15.89-5.89-3.587-3.938-5.376-9.582-5.376-16.938V67.36h13.485v7.14q0 4.922 2.015 6.875c1.344 1.293 3.133 1.938 5.375 1.938q3.375 0 5.391-1.938 2.016-1.952 2.016-6.875c0-3.113-.696-5.86-2.078-8.234q-2.08-3.575-5.204-6.75a133 133 0 0 0-6.671-6.36 63.6 63.6 0 0 1-6.688-6.937q-3.112-3.763-5.188-8.563-2.062-4.794-2.062-11.281m0 0" fill="#f6f4f0" data-color="1"/>
            <path d="M43.29 4.578h14.265v90.797H43.29Zm0 0" fill="#f6f4f0" data-color="1"/>
            <path d="M53.403 4.578h44.094v12.969H82.59v77.828H68.325V17.547H53.403Zm0 0" fill="#f6f4f0" data-color="1"/>
            <path d="M107.61 42.844h19.593v12.968h-19.594v26.594h24.64v12.969H93.345V4.578h38.906v12.969h-24.64Zm0 0" fill="#f6f4f0" data-color="1"/>
            <path d="m162.072 47-5.187 48.375h-19.578l-10.11-90.797h13.875l7.64 71.594 6.876-71.594h13.75l7.14 72.125 7.391-72.125h12.453l-10.125 90.797h-18.922Zm0 0" fill="#f6f4f0" data-color="1"/>
            <path d="M207.074 42.844h19.594v12.968h-19.594v26.594h24.64v12.969H192.81V4.578h38.906v12.969h-24.64Zm0 0" fill="#f6f4f0" data-color="1"/>
            <path d="M259.726 95.375a34 34 0 0 0-.516-1.687c-.18-.52-.328-1.165-.453-1.938-.125-.781-.215-1.773-.266-2.984a134 134 0 0 1-.062-4.547V69.953q0-6.357-2.203-8.953-2.204-2.592-7.125-2.594h-4.938v36.969h-14.266V4.578h21.532q11.155 0 16.14 5.188 4.999 5.19 5 15.703v7.125c0 9.343-3.117 15.484-9.343 18.422q5.449 2.203 7.453 7.203 2.015 4.987 2.015 12.125v14c0 2.25.086 4.219.266 5.906q.265 2.533 1.297 5.125Zm-15.563-77.828v27.89h5.578c2.676 0 4.77-.69 6.282-2.078 1.519-1.382 2.28-3.89 2.28-7.515V26.89q-.001-4.923-1.75-7.125c-1.167-1.477-3.007-2.22-5.515-2.22Zm0 0" fill="#f6f4f0" data-color="1"/>
            <path d="m290.066 59.188-4.406 8.296v27.891h-14.266V4.578h14.266v39.563l18.938-39.563h14.015L298.77 45.047l19.844 50.328h-14.656Zm0 0" fill="#f6f4f0" data-color="1"/>
        </g>
        <g clip-path="url(#364e4a25-9171-4116-b80d-12a9e40a8c94)" transform="translate(149 235)">
            <path d="M6.529 7.884v1.36c0 .843-.203 1.492-.61 1.937q-.61.674-1.812.672-1.19 0-1.812-.672c-.407-.445-.61-1.094-.61-1.937v-5.36q0-1.248.61-1.922c.414-.445 1.019-.672 1.812-.672.8 0 1.406.227 1.813.672q.609.675.609 1.922v1H4.998v-1.11q0-.56-.235-.78a.82.82 0 0 0-.61-.235q-.39 0-.624.235c-.149.148-.219.406-.219.78v5.579c0 .375.07.637.219.781.156.149.363.219.625.219.25 0 .453-.07.61-.219q.233-.217.234-.781V7.884Zm0 0" fill="#f6f4f0" data-color="1"/>
            <path d="M10.801 11.728q-.034-.106-.062-.187a2 2 0 0 1-.063-.22 5 5 0 0 1-.03-.343V8.837c0-.476-.087-.816-.25-1.015q-.252-.296-.813-.297h-.547v4.203H7.41V1.4h2.437q1.28.002 1.844.594.563.598.563 1.78v.813q-.001 1.595-1.063 2.094.62.253.844.828.234.564.234 1.375v1.594c0 .25.008.477.031.672.02.187.07.383.157.578ZM9.036 2.884v3.172h.625q.45 0 .703-.234.264-.248.265-.86V3.947q-.002-.562-.203-.813-.187-.248-.609-.25Zm0 0" fill="#f6f4f0" data-color="1"/>
            <path d="M14.856 5.76h2.219v1.468h-2.22v3.031h2.798v1.469H13.23V1.4h4.422v1.484h-2.797Zm0 0" fill="#f6f4f0" data-color="1"/>
            <path d="M23.8 11.728h-1.64l-.282-1.875h-1.985l-.28 1.875h-1.5L19.768 1.4h2.375Zm-3.703-3.281h1.562l-.781-5.219Zm0 0" fill="#f6f4f0" data-color="1"/>
            <path d="M23.975 1.4h5.016v1.484h-1.703v8.844h-1.625V2.884h-1.688Zm0 0" fill="#f6f4f0" data-color="1"/>
            <path d="M29.586 1.4h1.625v10.328h-1.625Zm0 0" fill="#f6f4f0" data-color="1"/>
            <path d="M34.72 9.822 35.97 1.4h1.484L35.86 11.728h-2.422L31.844 1.4h1.64Zm0 0" fill="#f6f4f0" data-color="1"/>
            <path d="M39.727 5.76h2.219v1.468h-2.22v3.031h2.798v1.469h-4.422V1.4h4.422v1.484h-2.797Zm0 0" fill="#f6f4f0" data-color="1"/>
            <path d="M45.399 3.884q-.002-1.248.593-1.922c.395-.445.989-.672 1.782-.672.8 0 1.398.227 1.797.672q.592.675.593 1.922v.328h-1.531v-.437q0-.56-.219-.781-.206-.235-.593-.235-.377 0-.594.235c-.149.148-.219.406-.219.78q0 .534.234.938.247.41.594.766.356.361.766.734c.27.243.52.5.75.782q.358.422.594.968.234.55.234 1.282c0 .843-.203 1.492-.61 1.937q-.61.674-1.796.672-1.206 0-1.813-.672c-.406-.445-.61-1.094-.61-1.937v-.625h1.532v.734c0 .375.07.637.219.781.156.149.363.219.625.219.25 0 .453-.07.61-.219q.233-.217.233-.781-.001-.528-.25-.937a4 4 0 0 0-.593-.766q-.345-.357-.75-.719a7 7 0 0 1-.766-.781 4.2 4.2 0 0 1-.578-.985q-.234-.544-.234-1.28m0 0" fill="#f6f4f0" data-color="1"/>
            <path d="M50.541 1.4h5.016v1.484h-1.704v8.844h-1.625V2.884h-1.687Zm0 0" fill="#f6f4f0" data-color="1"/>
            <path d="M57.699 1.4v7.969q-.002.563.218.78c.157.15.364.22.625.22.25 0 .446-.07.594-.22q.234-.217.234-.78v-7.97h1.547v7.86q-.001 1.268-.625 1.938-.61.656-1.797.656-1.204 0-1.812-.656-.61-.67-.61-1.938V1.4Zm0 0" fill="#f6f4f0" data-color="1"/>
            <path d="M61.914 1.4h2.562c.813 0 1.414.219 1.813.656q.61.643.61 1.906v5.22q0 1.251-.61 1.905c-.399.43-1 .641-1.813.641h-2.562Zm1.625 1.484v7.375h.906c.258 0 .46-.07.61-.219q.217-.234.218-.796v-5.36q0-.56-.219-.781-.222-.218-.609-.219Zm0 0" fill="#f6f4f0" data-color="1"/>
            <path d="M67.822 1.4h1.625v10.328h-1.625Zm0 0" fill="#f6f4f0" data-color="1"/>
            <path d="M72.002 9.353c0 .375.07.64.219.797q.233.22.625.219c.25 0 .453-.07.61-.22q.234-.233.234-.796V3.775q0-.56-.235-.781a.82.82 0 0 0-.61-.235q-.39 0-.624.235c-.149.148-.219.406-.219.78Zm-1.625-5.469q-.001-1.248.625-1.922c.426-.445 1.04-.672 1.844-.672.789 0 1.398.227 1.828.672q.64.675.64 1.922v5.36c0 .843-.214 1.492-.64 1.937q-.646.674-1.828.672-1.206 0-1.844-.672c-.418-.445-.625-1.094-.625-1.937Zm0 0" fill="#f6f4f0" data-color="1"/>
        </g>
    </g>
</svg>
